<svg width="160" height="164" viewBox="0 0 160 164" fill="none" xmlns="http://www.w3.org/2000/svg">
<path d="M103.333 75.1667C108.856 75.1667 113.333 70.5776 113.333 64.9167C113.333 59.2557 108.856 54.6667 103.333 54.6667C97.8105 54.6667 93.3333 59.2557 93.3333 64.9167C93.3333 70.5776 97.8105 75.1667 103.333 75.1667Z" fill="black"/>
<path d="M56.6667 75.1667C62.1895 75.1667 66.6667 70.5776 66.6667 64.9167C66.6667 59.2557 62.1895 54.6667 56.6667 54.6667C51.1438 54.6667 46.6667 59.2557 46.6667 64.9167C46.6667 70.5776 51.1438 75.1667 56.6667 75.1667Z" fill="black"/>
<path d="M79.9333 13.6667C43.1333 13.6667 13.3333 44.28 13.3333 82C13.3333 119.72 43.1333 150.333 79.9333 150.333C116.8 150.333 146.667 119.72 146.667 82C146.667 44.28 116.8 13.6667 79.9333 13.6667ZM80 136.667C50.5333 136.667 26.6666 112.203 26.6666 82C26.6666 51.7967 50.5333 27.3333 80 27.3333C109.467 27.3333 133.333 51.7967 133.333 82C133.333 112.203 109.467 136.667 80 136.667ZM80 112.75C84.8666 112.75 89.2667 114.048 93.1333 116.372C93.9333 115.415 98.8666 109.675 99.8666 108.582C94.2 104.755 87.4 102.5 80 102.5C72.6 102.5 65.8 104.755 60.0667 108.513C66.5333 115.962 60.1333 108.65 66.8 116.303C70.7333 114.048 75.1333 112.75 80 112.75Z" fill="black"/>
</svg>
